<svg xmlns="http://www.w3.org/2000/svg" width="16" height="16" viewBox="0 0 16 16">
  <path d="M15.7109385,5.03222079 L8.23744338,12.8328216 L6.83343033,14.2982866 C6.64760507,14.4922452 6.38971686,14.6 6.1314238,14.6 C5.87353559,14.6 5.61524253,14.4922452 5.42982212,14.2982866 L4.02580906,12.8328216 L0.289061512,8.93252121 C0.103236254,8.73856261 0,8.46896438 0,8.19978872 C0,7.93061305 0.103236254,7.66101482 0.289061512,7.46705622 L1.69307457,6.00159123 C1.87849498,5.80763263 2.13678804,5.70030042 2.39467625,5.70030042 C2.65296931,5.70030042 2.91085752,5.80763263 3.09668278,6.00159123 L6.1314238,9.18014592 L12.9033172,2.10129081 C13.0891425,1.90733221 13.3470307,1.8 13.6053238,1.8 C13.863212,1.8 14.121505,1.90733221 14.3073303,2.10129081 L15.7109385,3.5667558 C15.8967637,3.7607144 16,4.02989007 16,4.2994883 C16,4.56866396 15.8967637,4.83826219 15.7109385,5.03222079"/>
</svg>
